<?xml version="1.0" encoding="utf-8"?>
<!-- Generator: Adobe Illustrator 26.2.1, SVG Export Plug-In . SVG Version: 6.00 Build 0)  -->
<svg version="1.1" xmlns="http://www.w3.org/2000/svg" xmlns:xlink="http://www.w3.org/1999/xlink" x="0px" y="0px"
	 viewBox="0 0 140 140" style="enable-background:new 0 0 140 140;" xml:space="preserve">
<style type="text/css">
	.st0{display:none;}
	.st1{display:inline;}
	.st2{fill:#193741;}
	.st3{display:inline;fill:none;}
	.st4{display:inline;fill:none;stroke:#EAC486;stroke-width:0.85;stroke-miterlimit:10;}
	.st5{fill:#EAC486;}
	.st6{fill:none;}
</style>
<g id="Ebene_1" class="st0">
	<g class="st1">
		<circle class="st2" cx="70" cy="70" r="70"/>
	</g>
	<path id="SVGID_x5F_1_x5F_" class="st3" d="M112.2,98.2c-15.6,23.3-47.1,29.6-70.4,14s-29.6-47.1-14-70.4s47.1-29.6,70.4-14
		S127.8,74.9,112.2,98.2z"/>
	<text class="st1">	<textPath  xlink:href="#SVGID_x5F_1_x5F_" startOffset="20.7233%">
<tspan  class="st5" style="font-family:'Avenir-Medium'; font-size:11.2428px; letter-spacing:200;">Scrollen</tspan>	</textPath>
</text>
	<path id="SVGID_x5F_00000072251659692810865490000009432666921829799579_x5F_" class="st3" d="M73.3,19.3c28,1.8,49.2,26,47.3,54
		s-26,49.2-54,47.3s-49.2-26-47.3-54C21.2,38.7,45.4,17.5,73.3,19.3z"/>
	<text class="st1">	<textPath  xlink:href="#SVGID_x5F_00000072251659692810865490000009432666921829799579_x5F_" startOffset="20.7233%">
<tspan  class="st5" style="font-family:'Avenir-Medium'; font-size:11.2428px; letter-spacing:200;">Scrollen</tspan>	</textPath>
</text>
	<path id="SVGID_x5F_00000101087863638466427530000014172154738800055426_x5F_" class="st3" d="M24.5,92.4
		c-12.4-25.2-2.1-55.6,23.1-68s55.6-2.1,68,23.1s2.1,55.6-23.1,68S36.8,117.6,24.5,92.4z"/>
	<text class="st1">	<textPath  xlink:href="#SVGID_x5F_00000101087863638466427530000014172154738800055426_x5F_" startOffset="20.7233%">
<tspan  class="st5" style="font-family:'Avenir-Medium'; font-size:11.2428px; letter-spacing:200;">Scrollen</tspan>	</textPath>
</text>
	<path class="st4" d="M63,123.9c2.3,0.3,4.6,0.5,7,0.5s4.7-0.2,7-0.5"/>
	<path class="st4" d="M120.2,49.1c-0.9-2.1-1.9-4.2-3.1-6.3s-2.5-4-3.9-5.8"/>
	<path class="st4" d="M26.8,37c-1.4,1.8-2.7,3.8-3.9,5.8c-1.2,2-2.2,4.1-3.1,6.3"/>
</g>
<g id="Ebene_2">
	<g>
		<path class="st5" d="M72,40.4v49.3l15.8-14.2l2.7,2.9L70,96.4l-20.6-18l2.7-2.9L68,89.7V40.4H72z"/>
	</g>
</g>
<g id="Ebene_3">
	<rect y="0" class="st6" width="140" height="140"/>
</g>
</svg>
