<?xml version="1.0" encoding="utf-8"?>
<!-- Generator: Adobe Illustrator 26.2.1, SVG Export Plug-In . SVG Version: 6.00 Build 0)  -->
<svg version="1.1" id="Ebene_1" xmlns="http://www.w3.org/2000/svg" xmlns:xlink="http://www.w3.org/1999/xlink" x="0px" y="0px"
	 viewBox="0 0 1920 337.8" style="enable-background:new 0 0 1920 337.8;" xml:space="preserve">
<style type="text/css">
	.st0{fill:#FBF3E7;}
</style>
<g>
	<path class="st0" d="M242.1,78.8c-19.7-25.3-47.9-39.4-78.8-39.4c-70.4,0-121.1,61.9-121.1,132.3c0,73.2,50.7,132.3,121.1,132.3
		c39.4,0,70.4-16.9,92.9-45l28.2,22.5c-28.2,39.4-70.4,56.3-121.1,56.3C73.2,337.8,0,267.5,0,168.9C0,76,67.6,0,163.3,0
		c42.2,0,84.5,14.1,112.6,50.7L242.1,78.8z"/>
	<path class="st0" d="M382.9,14.1h36.6v135.1h171.7V14.1h36.6v318.1h-36.6V183H419.5v149.2h-36.6V14.1z"/>
	<path class="st0" d="M858.7,14.1h36.6l135.1,318.1h-45l-33.8-78.8H791.1l-33.8,78.8h-42.2L858.7,14.1z M875.5,61.9L875.5,61.9
		L808,219.6h129.5L875.5,61.9z"/>
	<path class="st0" d="M1117.7,14.1h36.6v284.3h146.4v33.8h-183V14.1z"/>
	<path class="st0" d="M1390.7,14.1h199.9v33.8h-163.3v101.4h152V183h-152v112.6H1599v33.8h-208.3L1390.7,14.1L1390.7,14.1z"/>
	<path class="st0" d="M1917.2,47.9H1813v284.3h-36.6V47.9h-104.2V14.1H1920v33.8H1917.2z"/>
</g>
</svg>
