<?xml version="1.0" encoding="utf-8"?>
<!-- Generator: Adobe Illustrator 26.2.1, SVG Export Plug-In . SVG Version: 6.00 Build 0)  -->
<svg version="1.1" id="Ebene_1" xmlns="http://www.w3.org/2000/svg" xmlns:xlink="http://www.w3.org/1999/xlink" x="0px" y="0px"
	 viewBox="0 0 241.9 168.9" style="enable-background:new 0 0 241.9 168.9;" xml:space="preserve">
<style type="text/css">
	.st0{fill:#FBF3E7;}
	.st1{fill:none;}
</style>
<g>
	<g>
		<path class="st0" d="M161.6,18.9c1.6-18-26-18.9-36.8-18.9C69.6,0,73.3,40.6,80.5,46l3.9-1.7C74.1,34,92.9,2.9,125.7,3.9
			c14.4,0.5,19.5,2.9,18,13.5C142,30,133.2,34.1,129.6,35.2c-0.4,1.3-0.8,2.6-1.1,3.8c3.7,0.2,17,1.9,9.9,16.7
			c-8.2,17-30.2,14.6-46.1,13.8c20.8-3.4,27.4-12.7,30.6-23C126,36.2,134.1,8,134.1,8L132,6.8l-18.2,6.9c0,0-8.5,26.4-11.5,35.3
			c-5.8,17.4-19.6,19.8-24.2,20.4v2.7c2,0.2,14.9,1.4,33,1.3c31,0,48.7-6.7,48.7-21c0-13.4-22.7-15.4-22.7-15.4
			S160.3,34.2,161.6,18.9"/>
	</g>
	<g>
		<path class="st0" d="M0,145.2l1.4-0.2c2.7-0.6,2.7-0.3,2.7-6.8v-20.9c0-6.3,0-6.2-2.7-6.7H0v-1.5h17c2.7,0,12.2,0,12.2,7.9
			c0,6.1-4.8,8.2-7.8,9.1v0.1c3.5,0.5,9.6,2.8,9.6,9.8c0,8.3-7.7,10.7-16.2,10.7H0V145.2z M11.5,125.7h2.1c4.3,0,8.2-1.2,8.2-7.3
			c0-4.4-3-7.1-7.4-7.1c-1,0-1.9,0.1-2.9,0.4V125.7z M11.5,143.6c1.5,0.6,3.1,0.9,4.6,0.9c5.2,0,7.5-3.2,7.5-7.7s-2.8-8.9-9.7-8.9
			h-2.4V143.6z"/>
		<path class="st0" d="M60.5,143.9c-1.5,1.2-5.1,3.6-10.8,3.6c-6.7,0-13.3-4.3-13.3-13.4s6.6-14.2,13-14.2c9.2,0,10.7,6,11.3,9.3
			c-4.9,2.3-11.2,4.1-17.1,5.5c0.6,3.4,2.3,9.6,10.1,9.6c3.1,0,5.5-1.3,6.3-1.7L60.5,143.9z M53.8,129.5c-0.4-4.1-2.1-7.5-5.7-7.5
			c-5,0-5,8.9-5,9.9C46.8,131.4,50.4,130.7,53.8,129.5z"/>
		<path class="st0" d="M66.3,145.2l1.2-0.1c2.1-0.2,2.3-0.8,2.3-3.8v-25.7c0-5,0-7.2-1.9-7.2c-0.7,0-1.4,0.1-1.6,0.1V107
			c4.7-1,7.3-1.3,10.4-1.3v35.6c0,3,0.3,3.6,2.3,3.8l1.2,0.1v1.5H66.3V145.2z"/>
		<path class="st0" d="M85,145.2l1.4-0.3c1.3-0.4,2.1-1.1,3.7-5l12.2-30.8c1.4-0.5,2.3-0.6,3.4-0.7l12.1,32.1
			c0.9,2.5,1.6,3.9,3.6,4.4l1.4,0.3v1.5h-16.1v-1.5l2.3-0.3c1.1-0.2,1.9-0.5,1.9-1.3c0-0.6-0.2-1.1-0.5-1.9l-3.1-8.6
			c-1.3-0.5-4-0.7-5.7-0.7c-1.4,0-4.3,0.2-5.4,0.7l-2.2,6.2c-0.6,1.8-1.1,3.6-1.1,4c0,0.9,0.5,1.1,1.5,1.3l3.1,0.6v1.5H85V145.2z
			 M97,130.5c1.4-0.2,3.4-0.3,4.7-0.3c1.2,0,3.2,0.1,4.8,0.3l-4.7-13.1h-0.1L97,130.5z"/>
		<path class="st0" d="M130.5,128.1c0-2,0-4.6-1.7-4.6c-0.9,0-1.5,0.2-1.8,0.3v-1.5c4.3-1.4,5.5-1.8,9.6-2.5c0.2,1,0.5,2.2,0.5,3.9
			c1.1-1.2,3.5-3.9,6.4-3.9c2.4,0,3.8,1.7,4.6,2.5c-0.8,1.8-1.6,2.8-3.4,4c-0.9-0.2-4.2-1.6-5-1.6c-0.9,0-1.5,0.2-2.3,1.1v13.8
			c0,4,0,4.8,2.4,5.1l2.3,0.3v1.5h-15V145l1.2-0.1c2.1-0.2,2.3-0.8,2.3-3.8v-13L130.5,128.1L130.5,128.1z"/>
		<path class="st0" d="M152.5,134c0-9.8,7.3-14.1,14.5-14.1c7.5,0,14.2,4.1,14.2,13.3c0,10.1-7.3,14.4-14.6,14.4
			S152.5,143.6,152.5,134z M167.4,145.4c5.3,0,6.6-6.5,6.6-11c0-6-1.7-12.3-7.5-12.3c-5.2,0-6.6,6-6.6,10.8
			C159.8,138.8,161.9,145.4,167.4,145.4z"/>
		<path class="st0" d="M204.9,128.6c-0.2-1.9-1.4-6.5-5.6-6.5c-1.8,0-3.2,1.5-3.2,3.5c0,6,12.8,5,12.8,13.7c0,4.4-3.1,8.2-10.8,8.2
			c-3.4,0-5.8-0.7-7.9-1.8c-0.6-2.3-1-4.7-1-8.1h2.3c0.3,3.1,2.9,7.7,7.2,7.7c2.4,0,3.8-1.7,3.8-3.8c0-6.8-12.8-5.1-12.8-14.2
			c0-0.5,0-7.5,10.1-7.5c3,0,5.5,0.9,6.8,1.6c0.6,2.2,0.6,4.7,0.6,7.1h-2.3L204.9,128.6L204.9,128.6z"/>
		<path class="st0" d="M241.9,146.1c-0.7,0.4-2.4,1.4-4.9,1.4c-3.6,0-4.7-1.5-5.6-2.9c-1.6,1.1-3.9,2.9-7.9,2.9
			c-4.4,0-7.5-2.6-7.5-6.2c0-7.2,10-9.1,14.8-10.4v-1.4c0-3.4-0.9-6.4-5-6.4c-4.4,0-6,3.9-6.8,5.6h-0.6c-0.8-1.1-1.1-1.5-1.5-2.9
			c2.6-2.8,6.5-6,12.2-6c7.2,0,8.4,3.7,8.4,10.2v7c0,4.1,0,8.3,3.6,8.3c0.2,0,0.3,0,0.5-0.1L241.9,146.1z M230.8,133.6
			c-0.2,0-0.4-0.1-0.6-0.1c-3.2,0-6.8,1.7-6.8,5.9c0,2.7,1.7,4.8,4.2,4.8c1.9,0,3-1,3.5-1.4c-0.1-0.6-0.2-2-0.2-3.1L230.8,133.6
			L230.8,133.6z"/>
	</g>
</g>
<rect y="0" class="st1" width="241.9" height="168.9"/>
</svg>
