<?xml version="1.0" encoding="utf-8"?>
<!-- Generator: Adobe Illustrator 26.2.1, SVG Export Plug-In . SVG Version: 6.00 Build 0)  -->
<svg version="1.1" id="Ebene_1" xmlns="http://www.w3.org/2000/svg" xmlns:xlink="http://www.w3.org/1999/xlink" x="0px" y="0px"
	 viewBox="0 0 200 200" style="enable-background:new 0 0 200 200;" xml:space="preserve">
<style type="text/css">
	.st0{fill:#EAC486;}
</style>
<g>
	<path class="st0" d="M90,0H16.7C12.2,0,8,1.8,4.9,4.9C1.8,8,0,12.2,0,16.7v166.7c0,4.4,1.8,8.7,4.9,11.8c3.1,3.1,7.4,4.9,11.8,4.9
		H90c4.4,0,8.7-1.8,11.8-4.9c3.1-3.1,4.9-7.4,4.9-11.8V16.7c0-4.4-1.8-8.7-4.9-11.8C98.7,1.8,94.4,0,90,0z M100,183.3
		c0,2.7-1.1,5.2-2.9,7.1c-1.9,1.9-4.4,2.9-7.1,2.9H16.7c-2.7,0-5.2-1.1-7.1-2.9s-2.9-4.4-2.9-7.1V16.7c0-2.7,1.1-5.2,2.9-7.1
		s4.4-2.9,7.1-2.9h10V10c0,0.9,0.4,1.7,1,2.4s1.5,1,2.4,1h46.7c0.9,0,1.7-0.4,2.4-1c0.6-0.6,1-1.5,1-2.4V6.7h10
		c2.7,0,5.2,1.1,7.1,2.9c1.9,1.9,2.9,4.4,2.9,7.1V183.3z"/>
	<path class="st0" d="M195.1,98.2c-3.1-3.1-7.4-4.9-11.8-4.9v0h-69.8v6.7h69.8c2.7,0,5.2,1.1,7.1,2.9c1.9,1.9,2.9,4.4,2.9,7.1v10
		H190c-1.8,0-3.3,1.5-3.3,3.3V170c0,0.9,0.4,1.7,1,2.4c0.6,0.6,1.5,1,2.4,1h3.3v10c0,2.7-1.1,5.2-2.9,7.1c-1.9,1.9-4.4,2.9-7.1,2.9
		h-69.8v6.7h69.8c4.4,0,8.7-1.8,11.8-4.9c3.1-3.1,4.9-7.4,4.9-11.8V110C200,105.6,198.2,101.3,195.1,98.2z"/>
</g>
<polygon class="st0" points="131.3,4.6 115.3,20.6 131.3,36.6 134.8,33.2 122.3,20.6 134.8,8.1 "/>
<polygon class="st0" points="163.4,68.7 179.4,84.7 195.4,68.7 191.9,65.2 179.4,77.7 166.8,65.2 "/>
<path class="st0" d="M182.4,78.5h-6v-9.8c0-27.3-17.7-45-45-45h-9.8v-6h9.8c30.5,0,51,20.5,51,51V78.5z"/>
</svg>
