<?xml version="1.0" encoding="utf-8"?>
<!-- Generator: Adobe Illustrator 26.2.1, SVG Export Plug-In . SVG Version: 6.00 Build 0)  -->
<svg version="1.1" xmlns="http://www.w3.org/2000/svg" xmlns:xlink="http://www.w3.org/1999/xlink" x="0px" y="0px"
	 viewBox="0 0 140 140" style="enable-background:new 0 0 140 140;" xml:space="preserve">
<style type="text/css">
	.st0{fill:#193741;}
	.st1{fill:#EAC486;}
	.st2{fill:none;stroke:#EAC486;stroke-width:0.85;stroke-miterlimit:10;}
	.st3{display:none;}
	.st4{display:inline;}
	.st5{fill:none;}
</style>
<g id="Ebene_1">
	<g>
		<circle class="st0" cx="70" cy="70" r="70"/>
	</g>
	<g>
		<path class="st1" d="M37,29.2c0.3,0.1,0.7,0.1,1,0.1c0.3-0.1,0.6-0.2,0.9-0.4c0.1-0.1,0.3-0.2,0.4-0.4s0.2-0.3,0.3-0.5
			c0.1-0.2,0.1-0.4,0-0.6c0-0.2-0.1-0.4-0.2-0.5c-0.2-0.2-0.4-0.4-0.7-0.4c-0.3,0-0.5,0-0.8,0.1c-0.3,0.1-0.6,0.2-0.9,0.3
			s-0.7,0.2-1,0.2c-0.3,0-0.7,0-1-0.1c-0.3-0.1-0.7-0.4-1-0.8c-0.1-0.2-0.2-0.4-0.3-0.7c-0.1-0.3-0.1-0.6-0.1-0.9
			c0-0.3,0.2-0.6,0.3-0.9s0.5-0.6,0.9-0.9c0.3-0.3,0.7-0.5,1.1-0.6s0.8-0.2,1.3,0l-0.2,1.2c-0.2-0.1-0.5-0.1-0.8-0.1
			c-0.3,0-0.5,0.2-0.8,0.4c-0.2,0.2-0.4,0.4-0.5,0.5c-0.1,0.2-0.2,0.4-0.2,0.5c0,0.2,0,0.3,0,0.5c0,0.1,0.1,0.3,0.2,0.4
			c0.2,0.3,0.4,0.4,0.7,0.4c0.3,0,0.5,0,0.8-0.1c0.3-0.1,0.6-0.2,0.9-0.3c0.3-0.1,0.7-0.2,1-0.3c0.3,0,0.7,0,1,0.1
			c0.3,0.1,0.6,0.3,0.9,0.7c0.2,0.3,0.4,0.6,0.4,1c0.1,0.3,0.1,0.7,0,1c-0.1,0.3-0.2,0.6-0.4,0.9c-0.2,0.3-0.5,0.6-0.8,0.8
			c-0.4,0.3-0.8,0.5-1.3,0.7c-0.5,0.1-0.9,0.1-1.4,0L37,29.2z"/>
		<path class="st1" d="M46.4,18.1c-0.3-0.2-0.7-0.2-1.1-0.2c-0.4,0-0.7,0.1-1.1,0.3c-0.4,0.2-0.7,0.5-1,0.8c-0.2,0.3-0.4,0.7-0.5,1
			c-0.1,0.4-0.1,0.8-0.1,1.2c0.1,0.4,0.2,0.8,0.4,1.2c0.2,0.4,0.4,0.7,0.7,1c0.3,0.3,0.6,0.5,1,0.6c0.4,0.1,0.7,0.2,1.1,0.2
			c0.4,0,0.8-0.1,1.2-0.3c0.4-0.2,0.7-0.5,0.9-0.8c0.2-0.3,0.4-0.7,0.4-1.1l1.1,0.2c0,0.1-0.1,0.3-0.1,0.5c-0.1,0.2-0.2,0.4-0.3,0.7
			c-0.2,0.2-0.4,0.5-0.6,0.8c-0.3,0.3-0.6,0.5-1,0.7c-0.6,0.3-1.1,0.4-1.7,0.5c-0.6,0-1.1-0.1-1.6-0.3c-0.5-0.2-0.9-0.5-1.3-0.8
			c-0.4-0.4-0.7-0.8-0.9-1.2c-0.3-0.5-0.4-1.1-0.5-1.7c-0.1-0.6,0-1.1,0.1-1.6c0.2-0.5,0.4-1,0.8-1.4c0.4-0.4,0.8-0.8,1.4-1
			c0.5-0.2,1-0.4,1.5-0.4c0.5,0,1.1,0,1.5,0.3L46.4,18.1z"/>
		<path class="st1" d="M50.7,14.5l2.7-0.8c0.5-0.1,0.9-0.2,1.3-0.2c0.4,0,0.7,0.1,0.9,0.3c0.2,0.1,0.4,0.3,0.6,0.6
			c0.1,0.2,0.3,0.5,0.3,0.7c0.1,0.2,0.1,0.5,0.1,0.7c0,0.3-0.1,0.5-0.2,0.7c-0.1,0.2-0.3,0.4-0.5,0.6c-0.2,0.2-0.4,0.4-0.7,0.5
			l3.2,2.8l-1.3,0.4l-3-2.8L53,18.5l1,3.4l-1,0.3L50.7,14.5z M52.7,17.6l1.4-0.4c0.2-0.1,0.4-0.1,0.6-0.2c0.2-0.1,0.3-0.2,0.5-0.3
			c0.1-0.1,0.2-0.3,0.3-0.5c0-0.2,0-0.4-0.1-0.7c-0.1-0.3-0.2-0.5-0.3-0.6c-0.1-0.1-0.3-0.2-0.5-0.3c-0.2,0-0.4,0-0.6,0
			c-0.2,0-0.4,0.1-0.6,0.1L52,15.1L52.7,17.6z"/>
		<path class="st1" d="M65.1,19.7c-0.6,0.1-1.2,0-1.7-0.2c-0.5-0.2-1-0.4-1.4-0.7c-0.4-0.3-0.7-0.8-1-1.2c-0.3-0.5-0.4-1-0.5-1.6
			c-0.1-0.6,0-1.1,0.1-1.7c0.2-0.5,0.4-1,0.7-1.4s0.7-0.7,1.2-1c0.5-0.3,1-0.4,1.6-0.5c0.6-0.1,1.2,0,1.7,0.2c0.5,0.2,1,0.4,1.4,0.7
			c0.4,0.3,0.7,0.7,1,1.2s0.4,1,0.5,1.6s0,1.1-0.1,1.7c-0.2,0.5-0.4,1-0.7,1.4c-0.3,0.4-0.7,0.7-1.2,1
			C66.2,19.5,65.7,19.6,65.1,19.7z M65,18.7c0.5,0,0.9-0.2,1.2-0.4s0.6-0.5,0.9-0.8c0.2-0.3,0.4-0.7,0.5-1.1
			c0.1-0.4,0.1-0.8,0.1-1.2s-0.2-0.8-0.3-1.2s-0.4-0.7-0.7-0.9s-0.6-0.5-1-0.6c-0.4-0.1-0.8-0.2-1.3-0.1c-0.5,0-0.9,0.2-1.2,0.4
			c-0.3,0.2-0.6,0.5-0.9,0.8c-0.2,0.3-0.4,0.7-0.5,1.1c-0.1,0.4-0.1,0.8-0.1,1.2c0,0.4,0.2,0.8,0.3,1.2s0.4,0.7,0.7,0.9
			s0.6,0.5,1,0.6C64.1,18.7,64.5,18.7,65,18.7z"/>
		<path class="st1" d="M73.6,11.4l1.1,0.1L74,18.4l3.6,0.3l-0.1,1l-4.7-0.4L73.6,11.4z"/>
		<path class="st1" d="M82.7,12.6l1,0.3l-1.7,6.7l3.5,0.9l-0.3,1l-4.6-1.2L82.7,12.6z"/>
		<path class="st1" d="M91.2,15.2l4.7,2l-0.4,0.9l-3.7-1.6l-0.9,2.2l3.5,1.5l-0.4,0.9l-3.5-1.5l-1,2.3l3.9,1.7l-0.4,0.9L88,22.5
			L91.2,15.2z"/>
		<path class="st1" d="M100.5,19.7l1.2,0.8l-0.1,7.9l0,0l3.7-5.4l0.9,0.6l-4.5,6.5l-1.1-0.8l0.1-7.9l0,0l-3.7,5.4l-0.9-0.6
			L100.5,19.7z"/>
	</g>
	<g>
		<path class="st1" d="M51.2,119c-0.1-0.3-0.2-0.6-0.4-0.9c-0.2-0.2-0.5-0.4-0.8-0.6c-0.2-0.1-0.3-0.1-0.5-0.1c-0.2,0-0.4,0-0.6,0
			c-0.2,0-0.4,0.1-0.5,0.2c-0.2,0.1-0.3,0.3-0.4,0.5c-0.1,0.3-0.1,0.5,0,0.8c0.1,0.2,0.3,0.4,0.5,0.7c0.2,0.2,0.5,0.4,0.7,0.7
			s0.5,0.5,0.7,0.8c0.2,0.3,0.3,0.6,0.4,1c0.1,0.4,0,0.8-0.2,1.2c-0.1,0.2-0.2,0.4-0.4,0.6c-0.2,0.2-0.4,0.4-0.7,0.5
			c-0.3,0.1-0.6,0.2-1,0.2c-0.4,0-0.8-0.1-1.2-0.3c-0.4-0.2-0.8-0.4-1.1-0.7c-0.3-0.3-0.5-0.6-0.7-1.1l1.1-0.4
			c0,0.2,0.2,0.5,0.3,0.7c0.2,0.2,0.4,0.4,0.7,0.5c0.3,0.1,0.5,0.2,0.7,0.2c0.2,0,0.4,0,0.6-0.1c0.2-0.1,0.3-0.2,0.4-0.3
			c0.1-0.1,0.2-0.2,0.2-0.3c0.1-0.3,0.1-0.6,0-0.8c-0.1-0.2-0.3-0.5-0.5-0.7c-0.2-0.2-0.5-0.4-0.8-0.6c-0.3-0.2-0.5-0.5-0.7-0.7
			c-0.2-0.3-0.3-0.6-0.4-0.9c-0.1-0.3,0-0.7,0.2-1.2c0.1-0.4,0.4-0.6,0.6-0.9c0.3-0.2,0.5-0.4,0.8-0.5c0.3-0.1,0.6-0.1,1-0.1
			c0.4,0,0.7,0.1,1.1,0.3c0.5,0.2,0.9,0.5,1.2,0.8c0.4,0.3,0.6,0.7,0.7,1.2L51.2,119z"/>
		<path class="st1" d="M36.8,116.5c0,0.4,0.1,0.7,0.3,1c0.2,0.3,0.5,0.6,0.8,0.8c0.4,0.2,0.8,0.4,1.2,0.5c0.4,0.1,0.8,0,1.2-0.1
			c0.4-0.1,0.7-0.3,1.1-0.5c0.3-0.3,0.6-0.6,0.9-0.9c0.2-0.4,0.4-0.7,0.5-1.1c0.1-0.4,0.1-0.8,0-1.1c-0.1-0.4-0.2-0.7-0.4-1.1
			c-0.2-0.3-0.5-0.6-0.9-0.9c-0.4-0.2-0.8-0.4-1.2-0.4c-0.4,0-0.8,0-1.2,0.2l-0.4-1.1c0.1,0,0.2-0.1,0.5-0.1s0.5-0.1,0.8-0.1
			c0.3,0,0.6,0.1,1,0.1c0.4,0.1,0.7,0.3,1.1,0.5c0.5,0.3,0.9,0.8,1.2,1.2c0.3,0.5,0.5,1,0.6,1.5c0.1,0.5,0.1,1,0,1.6
			c-0.1,0.5-0.3,1-0.6,1.4c-0.3,0.5-0.7,0.9-1.2,1.3c-0.5,0.3-0.9,0.5-1.4,0.7c-0.5,0.1-1,0.1-1.6,0c-0.5-0.1-1.1-0.3-1.6-0.7
			c-0.4-0.3-0.8-0.7-1.1-1.1c-0.3-0.4-0.5-0.9-0.5-1.5L36.8,116.5z"/>
		<path class="st1" d="M31.6,114.5l-2-1.9c-0.4-0.3-0.6-0.7-0.8-1c-0.1-0.3-0.2-0.6-0.2-0.9c0-0.3,0.1-0.6,0.2-0.8
			c0.1-0.2,0.3-0.5,0.4-0.6c0.2-0.2,0.4-0.3,0.6-0.4c0.2-0.1,0.5-0.2,0.7-0.2c0.3,0,0.5,0,0.8,0.1c0.3,0.1,0.5,0.2,0.8,0.4l0.8-4.2
			l1,0.9l-0.9,3.9l0.9,0.8l2.4-2.6l0.8,0.7L31.6,114.5z M33.2,111.2l-1-1c-0.2-0.1-0.3-0.3-0.5-0.4c-0.2-0.1-0.3-0.2-0.5-0.2
			c-0.2,0-0.4,0-0.5,0c-0.2,0.1-0.4,0.2-0.6,0.4s-0.3,0.4-0.3,0.6c0,0.2,0,0.4,0,0.5c0.1,0.2,0.1,0.3,0.3,0.5
			c0.1,0.2,0.3,0.3,0.4,0.5l1,1L33.2,111.2z"/>
		<path class="st1" d="M28.8,99.5c0.4,0.5,0.6,1,0.7,1.5c0.1,0.5,0.1,1.1,0,1.6s-0.3,1-0.6,1.5c-0.3,0.5-0.7,0.9-1.2,1.2
			c-0.5,0.3-1,0.6-1.5,0.7c-0.5,0.1-1.1,0.2-1.6,0.1s-1-0.3-1.5-0.6c-0.5-0.3-0.9-0.7-1.2-1.2s-0.6-1-0.7-1.5
			c-0.1-0.5-0.1-1.1,0-1.6s0.3-1,0.6-1.5c0.3-0.5,0.7-0.9,1.2-1.2c0.5-0.3,1-0.6,1.5-0.7c0.5-0.1,1.1-0.2,1.6-0.1s1,0.3,1.5,0.5
			C28.1,98.6,28.5,99,28.8,99.5z M28,100.1c-0.3-0.4-0.6-0.7-0.9-0.9c-0.4-0.2-0.7-0.3-1.1-0.4c-0.4,0-0.8,0-1.2,0.1
			c-0.4,0.1-0.8,0.3-1.1,0.5c-0.4,0.3-0.6,0.5-0.9,0.9c-0.2,0.3-0.4,0.7-0.5,1.1c-0.1,0.4-0.1,0.8,0,1.2c0.1,0.4,0.2,0.8,0.5,1.2
			c0.3,0.4,0.6,0.7,0.9,0.9s0.7,0.3,1.1,0.4c0.4,0,0.8,0,1.2-0.1c0.4-0.1,0.8-0.3,1.1-0.5c0.4-0.3,0.6-0.5,0.9-0.9
			c0.2-0.3,0.4-0.7,0.5-1.1c0.1-0.4,0.1-0.8,0-1.2C28.5,100.8,28.3,100.4,28,100.1z"/>
		<path class="st1" d="M17.4,96.3l-0.5-1l6.3-2.9l-1.5-3.3l0.9-0.4l2,4.3L17.4,96.3z"/>
		<path class="st1" d="M13.9,87.7l-0.3-1l6.7-1.9l-1-3.5l1-0.3l1.3,4.6L13.9,87.7z"/>
		<path class="st1" d="M11.9,79.1L11.3,74l1-0.1l0.5,4l2.4-0.3l-0.4-3.8l1-0.1l0.4,3.8l2.5-0.3L18.2,73l1-0.1l0.6,5.3L11.9,79.1z"/>
		<path class="st1" d="M11.1,68.9l0.1-1.4l6.9-3.8l0,0l-6.5-0.5l0.1-1.1l7.9,0.7L19.5,64l-6.9,3.9l0,0l6.5,0.5l-0.1,1.1L11.1,68.9z"
			/>
	</g>
	<g>
		<path class="st1" d="M121.8,61.8c-0.3,0.2-0.5,0.5-0.6,0.8c-0.1,0.3-0.1,0.6-0.1,1c0,0.2,0.1,0.4,0.2,0.5c0.1,0.2,0.2,0.3,0.3,0.5
			c0.1,0.1,0.3,0.2,0.5,0.3c0.2,0.1,0.4,0.1,0.6,0.1c0.3,0,0.5-0.2,0.7-0.4c0.1-0.2,0.2-0.5,0.3-0.8c0.1-0.3,0.1-0.6,0.2-1
			c0.1-0.4,0.2-0.7,0.3-1c0.1-0.3,0.4-0.6,0.6-0.8c0.3-0.2,0.7-0.4,1.2-0.4c0.2,0,0.5,0,0.8,0.1s0.5,0.2,0.8,0.4
			c0.2,0.2,0.5,0.4,0.6,0.8s0.3,0.7,0.4,1.2c0.1,0.4,0,0.9,0,1.3c-0.1,0.4-0.3,0.8-0.6,1.1l-0.9-0.8c0.2-0.2,0.3-0.4,0.4-0.6
			c0.1-0.3,0.1-0.5,0.1-0.9c0-0.3-0.1-0.5-0.2-0.7c-0.1-0.2-0.2-0.3-0.4-0.4c-0.1-0.1-0.3-0.2-0.4-0.2c-0.1,0-0.3,0-0.4,0
			c-0.3,0-0.6,0.2-0.7,0.4s-0.3,0.5-0.3,0.8c-0.1,0.3-0.1,0.6-0.2,1c0,0.3-0.1,0.7-0.3,1c-0.1,0.3-0.3,0.6-0.6,0.8
			c-0.2,0.2-0.6,0.4-1.1,0.4c-0.4,0-0.7,0-1.1-0.1s-0.6-0.3-0.8-0.5s-0.4-0.5-0.6-0.8c-0.2-0.3-0.3-0.7-0.3-1.1
			c-0.1-0.5,0-1,0.1-1.5c0.1-0.5,0.4-0.9,0.7-1.2L121.8,61.8z"/>
		<path class="st1" d="M126.8,75.5c0.3-0.2,0.5-0.5,0.7-0.8c0.2-0.3,0.3-0.7,0.3-1.1c0-0.4,0-0.9-0.2-1.2c-0.1-0.4-0.4-0.7-0.6-1
			c-0.3-0.3-0.6-0.5-1-0.7s-0.8-0.3-1.3-0.3c-0.4,0-0.8,0-1.2,0.1s-0.7,0.3-1,0.5c-0.3,0.2-0.5,0.5-0.7,0.9
			c-0.2,0.4-0.3,0.8-0.3,1.2c0,0.5,0,0.9,0.2,1.2c0.2,0.4,0.4,0.7,0.7,0.9l-0.7,0.9c-0.1-0.1-0.2-0.2-0.3-0.3
			c-0.1-0.2-0.3-0.4-0.4-0.6c-0.1-0.3-0.3-0.6-0.4-0.9c-0.1-0.4-0.1-0.8-0.1-1.2c0-0.6,0.2-1.2,0.4-1.7s0.6-0.9,1-1.2
			c0.4-0.3,0.9-0.6,1.4-0.7c0.5-0.2,1-0.2,1.5-0.2c0.6,0,1.2,0.2,1.7,0.4c0.5,0.2,0.9,0.5,1.3,0.9c0.4,0.4,0.6,0.8,0.8,1.4
			c0.2,0.5,0.3,1.1,0.2,1.7c0,0.5-0.2,1-0.4,1.5c-0.2,0.5-0.6,0.9-1,1.2L126.8,75.5z"/>
		<path class="st1" d="M127.7,81l-0.6,2.7c-0.1,0.5-0.3,0.9-0.5,1.2c-0.2,0.3-0.4,0.5-0.7,0.6c-0.3,0.1-0.5,0.2-0.8,0.2
			c-0.3,0-0.5,0-0.8-0.1c-0.2-0.1-0.5-0.2-0.7-0.3c-0.2-0.1-0.4-0.3-0.5-0.5c-0.1-0.2-0.3-0.4-0.3-0.7c-0.1-0.3-0.1-0.6,0-0.8
			l-4.1,1.4l0.3-1.3l3.9-1.2l0.3-1.2l-3.4-0.8l0.2-1.1L127.7,81z M124,81.2l-0.3,1.4c0,0.2-0.1,0.4-0.1,0.6c0,0.2,0,0.4,0.1,0.6
			c0.1,0.2,0.1,0.3,0.3,0.5c0.1,0.1,0.3,0.2,0.6,0.3c0.3,0.1,0.5,0.1,0.7,0c0.2-0.1,0.3-0.2,0.5-0.3c0.1-0.1,0.2-0.3,0.3-0.5
			c0.1-0.2,0.1-0.4,0.2-0.6l0.3-1.4L124,81.2z"/>
		<path class="st1" d="M116,90.9c0.3-0.6,0.6-1,1-1.4c0.4-0.4,0.9-0.7,1.3-0.8c0.5-0.2,1-0.3,1.6-0.2c0.5,0,1.1,0.2,1.6,0.4
			c0.5,0.2,1,0.6,1.4,1c0.4,0.4,0.7,0.8,0.9,1.3s0.3,1,0.3,1.6c0,0.6-0.1,1.1-0.4,1.7c-0.3,0.6-0.6,1-1,1.4
			c-0.4,0.4-0.9,0.7-1.3,0.8c-0.5,0.2-1,0.3-1.6,0.2c-0.5,0-1.1-0.2-1.6-0.4c-0.5-0.2-1-0.6-1.4-1c-0.4-0.4-0.7-0.8-0.9-1.3
			c-0.2-0.5-0.3-1-0.3-1.6C115.6,92,115.8,91.4,116,90.9z M116.9,91.3c-0.2,0.4-0.3,0.8-0.3,1.2c0,0.4,0.1,0.8,0.2,1.1
			c0.2,0.4,0.4,0.7,0.7,1c0.3,0.3,0.6,0.5,1,0.7c0.4,0.2,0.8,0.3,1.2,0.3c0.4,0,0.8,0,1.2-0.1c0.4-0.1,0.7-0.3,1-0.6
			c0.3-0.3,0.6-0.6,0.7-1s0.3-0.8,0.3-1.2c0-0.4-0.1-0.8-0.2-1.1c-0.2-0.4-0.4-0.7-0.7-1c-0.3-0.3-0.6-0.5-1-0.7
			c-0.4-0.2-0.8-0.3-1.2-0.3c-0.4,0-0.8,0-1.2,0.1c-0.4,0.1-0.7,0.3-1,0.6C117.4,90.5,117.1,90.9,116.9,91.3z"/>
		<path class="st1" d="M119,102.4l-0.6,0.9l-5.7-4l-2.1,3l-0.8-0.6l2.7-3.9L119,102.4z"/>
		<path class="st1" d="M113.3,109.7l-0.8,0.8l-5-4.9l-2.6,2.6l-0.7-0.7l3.3-3.4L113.3,109.7z"/>
		<path class="st1" d="M106.9,115.7l-4.1,3.1l-0.6-0.8l3.3-2.4l-1.4-1.9l-3,2.2l-0.6-0.8l3-2.2l-1.5-2.1l-3.4,2.5l-0.6-0.8l4.3-3.2
			L106.9,115.7z"/>
		<path class="st1" d="M98.4,121.5l-1.3,0.6l-6.8-4l0,0l2.8,5.9l-1,0.5l-3.4-7.2l1.2-0.6l6.8,4l0,0l-2.8-5.9l1-0.5L98.4,121.5z"/>
	</g>
	<path class="st2" d="M63,123.9c2.3,0.3,4.6,0.5,7,0.5s4.7-0.2,7-0.5"/>
	<path class="st2" d="M120.2,49.1c-0.9-2.1-1.9-4.2-3.1-6.3s-2.5-4-3.9-5.8"/>
	<path class="st2" d="M26.8,37c-1.4,1.8-2.7,3.8-3.9,5.8c-1.2,2-2.2,4.1-3.1,6.3"/>
</g>
<g id="Ebene_2" class="st3">
	<g class="st4">
		<path class="st1" d="M72,40.4v49.3l15.8-14.2l2.7,2.9L70,96.4l-20.6-18l2.7-2.9L68,89.7V40.4H72z"/>
	</g>
</g>
<g id="Ebene_3">
	<rect y="0" class="st5" width="140" height="140"/>
</g>
</svg>
