<?xml version="1.0" encoding="utf-8"?>
<!-- Generator: Adobe Illustrator 26.2.1, SVG Export Plug-In . SVG Version: 6.00 Build 0)  -->
<svg version="1.1" id="Ebene_1" xmlns="http://www.w3.org/2000/svg" xmlns:xlink="http://www.w3.org/1999/xlink" x="0px" y="0px"
	 viewBox="0 0 200 200" style="enable-background:new 0 0 200 200;" xml:space="preserve">
<style type="text/css">
	.st0{fill:#FBF3E7;}
</style>
<g id="ux8nJV_00000054243529431062585010000018088967868631781801_">
	<g>
		<path class="st0" d="M35.8,100c0-9.3-0.1-18.6,0-27.9c0.3-18.4,14.1-33.7,32.4-36.1c1.7-0.2,3.5-0.3,5.3-0.3c17.7,0,35.5,0,53.2,0
			c18.1,0,32.9,11.8,36.8,29.4c0.6,2.7,0.8,5.6,0.8,8.4c0.1,17.7,0.1,35.4,0,53c0,18.2-11.8,33-29.5,36.9c-2.7,0.6-5.5,0.8-8.2,0.8
			c-17.7,0.1-35.5,0.1-53.2,0c-18.1,0-32.9-11.8-36.8-29.4c-0.6-2.8-0.8-5.8-0.8-8.7C35.7,117.5,35.7,108.7,35.8,100
			C35.8,100,35.8,100,35.8,100z M48.6,99.9c0,9.2,0,18.4,0,27.6c0,1.6,0.1,3.2,0.4,4.8c2.2,11.5,11.5,19.1,23.3,19.2
			c18.5,0,37.1,0,55.6,0c1.5,0,3-0.1,4.5-0.4c11.4-2.2,19.1-11.4,19.1-23c0.1-18.7,0-37.5,0-56.2c0-1.4-0.1-2.8-0.4-4.2
			c-2.2-11.5-11.5-19.1-23.3-19.1c-18.5,0-37.1,0-55.6,0c-1.5,0-3,0.1-4.5,0.4C56.3,51.1,48.6,60.4,48.6,72
			C48.5,81.3,48.6,90.6,48.6,99.9z"/>
		<path class="st0" d="M132.1,100.9c-0.8,17.9-15.6,31.9-33,31.2c-18-0.8-32-15.6-31.3-33.1c0.7-17.9,15.7-32,33.2-31.2
			C119,68.7,132.9,83.5,132.1,100.9z M80.7,99.9c0,10.6,8.6,19.3,19.2,19.4c10.6,0,19.3-8.6,19.4-19.1c0.1-10.7-8.6-19.4-19.3-19.4
			C89.4,80.7,80.7,89.3,80.7,99.9z"/>
		<path class="st0" d="M141.8,66.3c-0.1,4.4-3.7,8-8.1,8c-4.4-0.1-8-3.7-8-8.1c0.1-4.4,3.7-8,8.1-8
			C138.2,58.2,141.9,61.9,141.8,66.3z"/>
	</g>
</g>
</svg>
