<?xml version="1.0" encoding="utf-8"?>
<!-- Generator: Adobe Illustrator 26.2.1, SVG Export Plug-In . SVG Version: 6.00 Build 0)  -->
<svg version="1.1" id="Ebene_1" xmlns="http://www.w3.org/2000/svg" xmlns:xlink="http://www.w3.org/1999/xlink" x="0px" y="0px"
	 viewBox="0 0 200 200" style="enable-background:new 0 0 200 200;" xml:space="preserve">
<style type="text/css">
	.st0{fill:#FBF3E7;}
</style>
<path class="st0" d="M131.3,31.8c1.2,0.6,1.7,1.5,1.7,2.9c0,6.5,0,13,0,19.4c0,2.2-0.8,2.9-3,2.9c-4.3,0-8.5,0-12.8,0.1
	c-4.1,0.1-6.1,2.2-6.1,6.3c-0.1,4.7,0,9.4,0,14.3c0.5,0,1,0,1.5,0c5.8,0,11.5,0,17.3,0c2.5,0,3.3,0.8,3.1,3.3
	c-0.8,7.1-1.6,14.2-2.4,21.3c-0.2,1.8-1,2.5-2.9,2.5c-5.4,0-10.8,0-16.5,0c0,0.6,0,1.2,0,1.7c0,19.4,0,38.8,0,58.2
	c0,2.9-0.6,3.5-3.5,3.5c-7.6,0-15.3,0-22.9,0c-2.8,0-3.4-0.6-3.4-3.5c0-19.5,0-39,0-58.4c0-0.5,0-1.1,0-1.8c-0.5,0-1,0-1.5,0
	c-4.2,0-8.3,0-12.5,0c-2.5,0-3.1-0.7-3.1-3.2c0-6.8,0-13.7,0-20.5c0-2.5,0.7-3.1,3.2-3.1c4.8,0,9.7,0,14.6,0c0-0.5,0.1-0.8,0.1-1.2
	c0-4.9,0-9.8,0-14.6c0-2.3-0.2-4.5,0-6.8c0.9-7.7,5.1-13.4,11.4-17.6c4.8-3.2,10.1-4.9,15.8-5.4c0.3,0,0.5-0.1,0.8-0.2
	C117.1,31.8,124.2,31.8,131.3,31.8z"/>
</svg>
