<?xml version="1.0" encoding="utf-8"?>
<!-- Generator: Adobe Illustrator 26.2.1, SVG Export Plug-In . SVG Version: 6.00 Build 0)  -->
<svg version="1.1" id="Ebene_1" xmlns="http://www.w3.org/2000/svg" xmlns:xlink="http://www.w3.org/1999/xlink" x="0px" y="0px"
	 viewBox="0 0 200 200" style="enable-background:new 0 0 200 200;" xml:space="preserve">
<style type="text/css">
	.st0{fill:#FBF3E7;}
</style>
<g>
	<path class="st0" d="M123.3,61.9c1.1,0,2,0.9,2,2v72.1c0,1.1-0.9,2-2,2h-87c-1.1,0-2-0.9-2-2V63.9c0-1.1,0.9-2,2-2H123.3
		 M123.3,49.9h-87c-7.7,0-14,6.3-14,14v72.1c0,7.7,6.3,14,14,14h87c7.7,0,14-6.3,14-14V63.9C137.3,56.2,131.1,49.9,123.3,49.9
		L123.3,49.9z"/>
	<path class="st0" d="M166.1,144c-1.8,0-3.6-0.4-5.3-1.3l-33.2-16.9l5.5-10.7l32.7,16.7V68.9L133,85.6l-5.5-10.7l33.2-16.9
		c3.7-1.9,7.9-1.7,11.4,0.4c3.5,2.1,5.6,5.9,5.6,10v63.9c0,4.1-2.1,7.8-5.6,10C170.3,143.4,168.2,144,166.1,144z"/>
	<polygon class="st0" points="67.7,80.6 101.7,100 67.7,119.4 	"/>
</g>
</svg>
