<?xml version="1.0" encoding="utf-8"?>
<!-- Generator: Adobe Illustrator 26.2.1, SVG Export Plug-In . SVG Version: 6.00 Build 0)  -->
<svg version="1.1" id="Ebene_1" xmlns="http://www.w3.org/2000/svg" xmlns:xlink="http://www.w3.org/1999/xlink" x="0px" y="0px"
	 viewBox="0 0 200 200" style="enable-background:new 0 0 200 200;" xml:space="preserve">
<style type="text/css">
	.st0{fill:#FBF3E7;}
</style>
<g>
	<path class="st0" d="M52.4,37.5c-8.3,0-15,6.7-15,15c0,8.3,6.7,15,15.1,15c8.3,0,15-6.7,15-15C67.5,44.2,60.7,37.5,52.4,37.5z"/>
	<rect x="39.5" y="79" class="st0" width="26" height="83.5"/>
	<path class="st0" d="M131.5,76.9c-12.6,0-21.1,6.9-24.6,13.5h-0.3V79H81.7h0v83.5h25.9v-41.3c0-10.9,2.1-21.4,15.6-21.4
		c13.3,0,13.5,12.5,13.5,22.1v40.6h25.9v-45.8C162.6,94.2,157.8,76.9,131.5,76.9z"/>
</g>
</svg>
